Coordinates
version=1
nRows=10
nColumns=63
inDegrees=yes

Units are S.I. units (second, meters, Newtons, ...)
If the header above contains a line with 'inDegrees', this indicates whether rotational values are in degrees (yes) or radians (no).

endheader
time	pelvis_tilt	pelvis_list	pelvis_rotation	pelvis_tx	pelvis_ty	pelvis_tz	hip_flexion_r	hip_adduction_r	hip_rotation_r	knee_angle_r	knee_angle_r_beta	ankle_angle_r	subtalar_angle_r	mtp_angle_r	hip_flexion_l	hip_adduction_l	hip_rotation_l	knee_angle_l	knee_angle_l_beta	ankle_angle_l	subtalar_angle_l	mtp_angle_l	L5_S1_Flex_Ext	L5_S1_Lat_Bending	L5_S1_axial_rotation	L4_L5_Flex_Ext	L4_L5_Lat_Bending	L4_L5_axial_rotation	L3_L4_Flex_Ext	L3_L4_Lat_Bending	L3_L4_axial_rotation	L2_L3_Flex_Ext	L2_L3_Lat_Bending	L2_L3_axial_rotation	L1_L2_Flex_Ext	L1_L2_Lat_Bending	L1_L2_axial_rotation	L1_T12_Flex_Ext	L1_T12_Lat_Bending	L1_T12_axial_rotation	Abs_r3	Abs_r2	Abs_r1	Abs_t1	Abs_t2	neck_flexion	neck_bending	neck_rotation	arm_flex_r	arm_add_r	arm_rot_r	elbow_flex_r	pro_sup_r	wrist_flex_r	wrist_dev_r	arm_flex_l	arm_add_l	arm_rot_l	elbow_flex_l	pro_sup_l	wrist_flex_l	wrist_dev_l
0.000000	1.117990	-4.959973	93.386609	0.181002	0.754083	0.778604	4.398213	-2.008981	14.826865	0.642257	0.011209	23.242432	-14.146033	0.000000	6.929115	2.080960	12.870186	4.265863	0.074453	28.843626	-14.512641	0.000000	0.847857	0.004333	-0.461569	1.574555	0.005762	-0.490417	1.392944	0.010534	-0.490417	0.969016	0.010534	-0.403872	0.787320	0.008835	-0.375024	0.484466	0.006711	-0.346176	6.056158	0.049011	-2.567106	0.000000	0.000000	28.413768	7.852113	10.099035	20.355943	8.056951	161.006047	6.559638	2.803849	0.017760	-10.977475	19.796247	5.251347	127.256597	12.017203	3.813392	2.684366	-10.799528
0.025641	1.131889	-5.125225	93.309836	0.180157	0.754099	0.779929	4.720438	-2.059825	14.903317	0.723760	0.012632	22.701305	-14.696612	0.000000	7.395648	2.172847	11.527302	4.710183	0.082208	28.734233	-13.853300	0.000000	0.852532	0.032545	-0.486301	1.583236	0.043285	-0.516694	1.400624	0.079130	-0.516694	0.974358	0.079130	-0.425513	0.791661	0.066365	-0.395119	0.487137	0.050412	-0.364725	6.089548	0.368154	-2.704658	0.000000	0.000000	28.412239	8.154198	11.624049	20.607463	7.592646	154.829915	7.528945	2.757524	0.977297	-10.618504	19.908987	5.072332	125.530671	12.373163	4.090699	2.451103	-11.568916
0.051282	1.102811	-5.257680	93.288586	0.179483	0.754081	0.780928	4.956885	-2.144989	14.947407	0.787724	0.013748	22.282519	-15.151166	0.000000	7.752532	2.289157	10.557010	5.027648	0.087749	28.649095	-13.372923	0.000000	0.858017	0.047319	-0.498325	1.593423	0.062934	-0.529470	1.409635	0.115051	-0.529470	0.980627	0.115051	-0.436034	0.796754	0.096493	-0.404889	0.490271	0.073297	-0.373744	6.128727	0.535281	-2.771533	0.000000	0.000000	28.411005	8.436212	12.779989	20.778453	7.226453	149.848654	8.286921	2.742466	1.717307	-10.306216	19.997265	4.966823	124.539951	12.607737	4.288209	2.267409	-12.201939
0.076923	1.037971	-5.360148	93.316514	0.178959	0.754032	0.781632	5.116001	-2.257994	14.962900	0.835672	0.014585	21.974536	-15.518189	0.000000	8.010398	2.424374	9.922216	5.231471	0.091306	28.588090	-13.053021	0.000000	0.864148	0.050469	-0.499507	1.604810	0.067123	-0.530726	1.419709	0.122709	-0.530726	0.987635	0.122709	-0.437069	0.802448	0.102916	-0.405849	0.493774	0.078176	-0.374630	6.172525	0.570911	-2.778108	0.000000	0.000000	28.410028	8.698457	13.606005	20.877181	6.950385	145.986431	8.849433	2.754696	2.255180	-10.040282	20.063942	4.925049	124.186839	12.737648	4.415388	2.129314	-12.706621
0.102564	0.944587	-5.435441	93.387272	0.178567	0.753953	0.782071	5.206230	-2.392357	14.953560	0.869129	0.015169	21.765819	-15.806175	0.000000	8.179880	2.572982	9.585826	5.334866	0.093111	28.551090	-12.875111	0.000000	0.870763	0.043808	-0.491713	1.617093	0.058265	-0.522446	1.430576	0.106515	-0.522446	0.995195	0.106515	-0.430249	0.808590	0.089333	-0.399517	0.497554	0.067859	-0.368785	6.219770	0.495564	-2.734762	0.000000	0.000000	28.409269	8.941235	14.141246	20.911913	6.756454	143.167414	9.232348	2.790238	2.608308	-9.820371	20.111882	4.937239	124.373737	12.779621	4.481706	2.032847	-13.090987
0.128205	0.829875	-5.486369	93.494517	0.178288	0.753848	0.782275	5.236019	-2.541597	14.923148	0.889620	0.015527	21.644831	-16.023620	0.000000	8.271611	2.729466	9.510749	5.351045	0.093393	28.537973	-12.820704	0.000000	0.877696	0.029151	-0.476810	1.629968	0.038771	-0.506610	1.441966	0.070878	-0.506610	1.003118	0.070878	-0.417209	0.815028	0.059445	-0.387408	0.501515	0.045155	-0.357607	6.269291	0.329763	-2.651873	0.000000	0.000000	28.408690	9.164846	14.424862	20.890918	6.636672	141.315769	9.451531	2.845114	2.794079	-9.646154	20.143948	4.993625	125.003046	12.750380	4.496629	1.974039	-13.363063
0.153846	0.701050	-5.515743	93.631901	0.178102	0.753718	0.782275	5.213813	-2.699234	14.875430	0.898670	0.015685	21.600034	-16.179016	0.000000	8.296224	2.888309	9.659890	5.293220	0.092384	28.548614	-12.871316	0.000000	0.884783	0.008312	-0.456662	1.643131	0.011055	-0.485204	1.453610	0.020209	-0.485204	1.011219	0.020209	-0.399579	0.821610	0.016950	-0.371038	0.505565	0.012875	-0.342497	6.319918	0.094026	-2.539818	0.000000	0.000000	28.408253	9.369593	14.496002	20.822461	6.583050	140.355663	9.522849	2.915348	2.829886	-9.517300	20.163001	5.084434	125.977166	12.666648	4.469625	1.948918	-13.530873
0.179487	0.565328	-5.526374	93.793081	0.177989	0.753566	0.782101	5.148057	-2.858785	14.814168	0.897804	0.015670	21.619890	-16.280858	0.000000	8.264352	3.043997	9.996157	5.174605	0.090314	28.582888	-13.008460	0.000000	0.891862	-0.016896	-0.433137	1.656276	-0.022471	-0.460208	1.465239	-0.041080	-0.460208	1.019309	-0.041080	-0.378995	0.828183	-0.034453	-0.351924	0.509610	-0.026171	-0.324853	6.370478	-0.191126	-2.408976	0.000000	0.000000	28.407918	9.555777	14.393816	20.714810	6.587602	140.211263	9.462168	2.996962	2.733119	-9.433478	20.171905	5.199897	127.198501	12.545150	4.410161	1.953515	-13.602443
0.205128	0.429926	-5.521073	93.971711	0.177932	0.753394	0.781784	5.047198	-3.013770	14.743127	0.888547	0.015508	21.692862	-16.337641	0.000000	8.186629	3.191013	10.482455	5.008412	0.087413	28.640670	-13.213649	0.000000	0.898767	-0.044657	-0.408099	1.669100	-0.059394	-0.433605	1.476584	-0.108580	-0.433605	1.027201	-0.108580	-0.357087	0.834595	-0.091065	-0.331581	0.513555	-0.069174	-0.306074	6.419801	-0.505172	-2.269725	0.000000	0.000000	28.407649	9.723699	14.157454	20.576232	6.642339	140.806735	9.285356	3.085979	2.521168	-9.394359	20.173522	5.330244	128.569451	12.402610	4.327705	1.983857	-13.585798
0.230769	0.302060	-5.502651	94.161444	0.177909	0.753205	0.781353	4.919680	-3.157707	14.666068	0.872422	0.015227	21.807412	-16.357859	0.000000	8.073687	3.323843	11.081693	4.807853	0.083913	28.721836	-13.468398	0.000000	0.905335	-0.073159	-0.383416	1.681297	-0.097302	-0.407379	1.487374	-0.177879	-0.407379	1.034707	-0.177879	-0.335489	0.840694	-0.149186	-0.311525	0.517308	-0.113324	-0.287562	6.466716	-0.827592	-2.132443	0.000000	0.000000	28.407406	9.873662	13.826064	20.414995	6.739274	142.066247	9.008278	3.178422	2.211424	-9.399612	20.170715	5.465704	129.992417	12.255750	4.231724	2.035976	-13.488962
